<?xml version="1.0" standalone="no"?>
<!DOCTYPE svg PUBLIC "-//W3C//DTD SVG 20010904//EN"
 "http://www.w3.org/TR/2001/REC-SVG-20010904/DTD/svg10.dtd">
<svg version="1.0" xmlns="http://www.w3.org/2000/svg"
 width="512.000000pt" height="512.000000pt" viewBox="0 0 512.000000 512.000000"
 preserveAspectRatio="xMidYMid meet">

<g transform="translate(0.000000,512.000000) scale(0.100000,-0.100000)"
fill="#000000" stroke="none">
<path d="M4561 2334 c-19 -8 -113 -93 -210 -188 l-175 -174 241 -249 c132
-136 251 -257 263 -268 l22 -20 175 180 c96 99 181 194 189 212 20 45 18 117
-5 161 -28 53 -308 328 -353 347 -47 19 -103 19 -147 -1z"/>
<path d="M2985 371 c-16 -10 -78 -68 -137 -128 -96 -98 -108 -114 -108 -145 0
-71 63 -111 127 -81 17 8 81 65 142 128 104 106 111 116 111 153 0 33 -6 45
-31 66 -36 31 -63 33 -104 7z"/>
</g>
</svg>
